# Wavefront Obj file
# 
# verts: 40 uv-s: 60
mtllib Larj Rock.mtl

g Cylinder001
#pivot 0.000000 0.000000 0.000000

v 9.384100 0.000000 25.274300
v -1.999900 0.000000 31.783199
v -16.735399 0.000000 31.457899
v -24.429501 0.000000 21.263599
v -22.417299 0.000000 6.222900
v -10.850300 0.000000 -0.732599
v 5.731901 0.000000 -0.706699
v 11.436401 0.000000 13.065300
v 5.731901 7.380700 0.678800
v 9.260900 1.658300 13.065300
v -10.850300 9.336000 0.957400
v -21.416599 12.329800 7.919400
v -23.219900 7.565000 21.263599
v -16.061199 13.128800 30.494101
v -1.999900 10.458400 29.561800
v 7.197000 1.307500 25.274300
v 5.731901 16.652000 -0.706699
v 11.436401 12.305000 13.065300
v -10.850300 19.982599 -0.732599
v -22.417299 22.976500 6.222900
v -24.429501 18.211700 21.263599
v -18.837700 23.775400 33.609501
v -1.999900 21.105101 31.783199
v 9.384100 11.954200 25.274300
v 3.895401 25.619400 7.684000
v 7.483100 21.438900 14.844900
v -9.817700 28.145599 2.908700
v -20.482300 27.361500 8.013300
v -22.953800 25.836599 20.164801
v -17.463400 31.716600 31.195601
v -3.724300 28.118200 30.267401
v 6.744700 18.843399 24.416500
v 0.205100 26.313101 13.257600
v 1.339900 25.483299 16.774799
v -9.016900 29.620300 8.658600
v -15.250200 29.280399 12.023400
v -16.284300 30.420000 15.971400
v -14.405700 33.133801 23.518200
v -6.952000 31.827200 25.123501
v 0.858500 25.930901 21.687099
# 40 positions

vt 0.575318 0.635782
vt 0.475033 0.693328
vt 0.345105 0.690663
vt 0.277125 0.600885
vt 0.294659 0.468242
vt 0.396551 0.406755
vt 0.542758 0.406755
vt 0.593245 0.528106
vt 0.652689 0.990000
vt 0.518508 0.986603
vt 0.523068 0.924022
vt 0.650362 0.966342
vt 0.363798 0.966530
vt 0.369029 0.886495
vt 0.239735 0.932555
vt 0.262698 0.825684
vt 0.113594 0.883568
vt 0.134202 0.819596
vt 0.010000 0.838495
vt 0.053825 0.731712
vt 0.990000 0.855859
vt 0.866909 0.913210
vt 0.833628 0.830454
vt 0.940592 0.752564
vt 0.762669 0.966530
vt 0.767276 0.944666
vt 0.519717 0.845203
vt 0.638390 0.869775
vt 0.395214 0.791311
vt 0.298859 0.739903
vt 0.168969 0.727874
vt 0.084013 0.631247
vt 0.807740 0.734114
vt 0.928108 0.648783
vt 0.734582 0.852541
vt 0.553979 0.745980
vt 0.635519 0.776987
vt 0.421505 0.714310
vt 0.314046 0.697011
vt 0.203376 0.667228
vt 0.130650 0.572574
vt 0.787563 0.671944
vt 0.882242 0.589486
vt 0.721532 0.788889
vt 0.190498 0.286843
vt 0.153933 0.332814
vt 0.119926 0.331478
vt 0.111659 0.265454
vt 0.274038 0.390050
vt 0.222992 0.402882
vt 0.271342 0.496618
vt 0.218689 0.466184
vt 0.186526 0.570944
vt 0.188839 0.488969
vt 0.063117 0.547069
vt 0.117466 0.497937
vt 0.025032 0.423014
vt 0.083163 0.442201
vt 0.025032 0.288710
vt 0.080549 0.352267
# 60 texture coordinates

vn 0.766892 0.051902 0.639674
vn 0.286572 -0.310419 0.906375
vn -0.402506 -0.400337 0.823237
vn -0.890928 -0.388272 0.235567
vn -0.779878 -0.377697 -0.499134
vn -0.252378 -0.329886 -0.909660
vn 0.561369 -0.335186 -0.756647
vn 0.992364 0.057791 -0.108965
vn 0.569987 0.052157 -0.819997
vn 0.969603 0.219105 -0.108921
vn -0.288536 0.007425 -0.957440
vn -0.841657 0.001058 -0.540012
vn -0.969800 -0.034574 0.241437
vn -0.432851 -0.067558 0.898930
vn 0.256366 0.003586 0.966573
vn 0.752200 0.230130 0.617442
vn 0.629391 0.218593 -0.745711
vn 0.989869 0.121360 -0.073691
vn -0.210132 0.196984 -0.957623
vn -0.829875 0.128863 -0.542865
vn -0.984048 0.046148 0.171813
vn -0.472303 0.008120 0.881399
vn 0.322779 0.055268 0.944859
vn 0.828934 0.102099 0.549950
vn 0.550546 0.788141 -0.275197
vn 0.785173 0.615335 0.069759
vn -0.013784 0.834033 -0.551542
vn -0.579028 0.736948 -0.348762
vn -0.807817 0.589389 0.007216
vn -0.410687 0.747866 0.521568
vn 0.475995 0.623841 0.619880
vn 0.767060 0.559347 0.314246
vn 0.438419 0.898347 -0.027598
vn 0.565581 0.822140 0.064837
vn 0.168538 0.970249 -0.173817
vn -0.204569 0.962868 -0.176171
vn -0.364087 0.920564 -0.141432
vn -0.134357 0.990815 0.015282
vn 0.379368 0.923613 0.054950
vn 0.620081 0.781148 0.072851
# 40 normals

usemtl wire_135006006
f 1/1/1 2/2/2 3/3/3 4/4/4 5/5/5 6/6/6 7/7/7 8/8/8
f 8/9/8 7/10/7 9/11/9 10/12/10
f 7/10/7 6/13/6 11/14/11 9/11/9
f 6/13/6 5/15/5 12/16/12 11/14/11
f 5/15/5 4/17/4 13/18/13 12/16/12
f 4/17/4 3/19/3 14/20/14 13/18/13
f 3/21/3 2/22/2 15/23/15 14/24/14
f 2/22/2 1/25/1 16/26/16 15/23/15
f 1/25/1 8/9/8 10/12/10 16/26/16
f 10/12/10 9/11/9 17/27/17 18/28/18
f 9/11/9 11/14/11 19/29/19 17/27/17
f 11/14/11 12/16/12 20/30/20 19/29/19
f 12/16/12 13/18/13 21/31/21 20/30/20
f 13/18/13 14/20/14 22/32/22 21/31/21
f 14/24/14 15/23/15 23/33/23 22/34/22
f 15/23/15 16/26/16 24/35/24 23/33/23
f 16/26/16 10/12/10 18/28/18 24/35/24
f 18/28/18 17/27/17 25/36/25 26/37/26
f 17/27/17 19/29/19 27/38/27 25/36/25
f 19/29/19 20/30/20 28/39/28 27/38/27
f 20/30/20 21/31/21 29/40/29 28/39/28
f 21/31/21 22/32/22 30/41/30 29/40/29
f 22/34/22 23/33/23 31/42/31 30/43/30
f 23/33/23 24/35/24 32/44/32 31/42/31
f 24/35/24 18/28/18 26/37/26 32/44/32
f 25/45/25 33/46/33 34/47/34 26/48/26
f 27/49/27 35/50/35 33/46/33 25/45/25
f 28/51/28 36/52/36 35/50/35 27/49/27
f 29/53/29 37/54/37 36/52/36 28/51/28
f 30/55/30 38/56/38 37/54/37 29/53/29
f 31/57/31 39/58/39 38/56/38 30/55/30
f 32/59/32 40/60/40 39/58/39 31/57/31
f 26/48/26 34/47/34 40/60/40 32/59/32
f 33/46/33 35/50/35 39/58/39 40/60/40 34/47/34
f 35/50/35 36/52/36 37/54/37 38/56/38 39/58/39

# 35 faces
